<svg xmlns="http://www.w3.org/2000/svg" xmlns:xlink="http://www.w3.org/1999/xlink" width="1920" zoomAndPan="magnify" viewBox="0 0 1440 809.999993" height="1080" preserveAspectRatio="xMidYMid meet" version="1.0"><defs><clipPath id="e50a5d2af2"><path d="M 66 47 L 1323 47 L 1323 810 L 66 810 Z M 66 47 " clip-rule="nonzero"/></clipPath><clipPath id="997a3df13b"><path d="M 604.339844 -320.984375 L 1719.347656 346.933594 L 1160.117188 1280.5 L 45.109375 612.582031 Z M 604.339844 -320.984375 " clip-rule="nonzero"/></clipPath><clipPath id="f514e03413"><path d="M 604.339844 -320.984375 L 1719.347656 346.933594 L 1160.117188 1280.5 L 45.109375 612.582031 Z M 604.339844 -320.984375 " clip-rule="nonzero"/></clipPath></defs><g clip-path="url(#e50a5d2af2)"><g clip-path="url(#997a3df13b)"><g clip-path="url(#f514e03413)"><path fill="#ffffff" d="M 1322.054688 1003.335938 C 1311.53125 907.007812 1300.800781 808.703125 1289.960938 709.117188 L 1290.117188 708.949219 C 1290.054688 708.886719 1289.988281 708.828125 1289.921875 708.765625 C 1287.277344 684.464844 1284.621094 660.082031 1281.964844 635.636719 L 1282.003906 635.59375 C 1281.988281 635.578125 1281.972656 635.566406 1281.957031 635.550781 C 1261.015625 442.933594 1239.757812 246.210938 1218.875 50.257812 L 1218.550781 47.210938 L 1216.03125 48.953125 C 1193.828125 64.308594 1170.960938 79.421875 1147.347656 94.359375 L 1147.292969 94.355469 C 1147.292969 94.367188 1147.292969 94.378906 1147.289062 94.394531 C 1121.546875 110.671875 1094.910156 126.738281 1067.242188 142.664062 L 1066.242188 142.367188 L 1065.929688 143.417969 C 1039.386719 158.675781 1011.894531 173.804688 983.339844 188.875 L 983.007812 188.710938 L 982.785156 189.167969 C 967.171875 197.402344 951.242188 205.621094 934.976562 213.835938 C 901.351562 230.808594 866.601562 248.046875 830.972656 264.074219 L 830.324219 263.554688 L 829.308594 264.828125 C 808.382812 274.210938 787.15625 283.152344 765.667969 291.375 L 764.441406 290.242188 L 762.167969 292.703125 C 745.695312 298.941406 729.078125 304.765625 712.320312 309.988281 C 710.613281 310.523438 708.890625 311.042969 707.167969 311.5625 L 705.808594 310.15625 L 703.109375 312.761719 C 687.855469 317.226562 671.925781 321.167969 654.59375 324.746094 L 653.980469 324.042969 L 652.746094 325.125 C 638.996094 327.921875 624.367188 330.5 608.46875 332.925781 L 608.316406 332.738281 L 607.996094 332.996094 C 602.609375 333.816406 597.09375 334.621094 591.402344 335.410156 C 583.109375 336.5625 574.851562 338.078125 566.636719 339.839844 L 566.53125 339.710938 C 566.445312 339.78125 566.363281 339.847656 566.277344 339.917969 C 537.753906 346.070312 509.738281 355.402344 482.445312 364.507812 C 470.929688 368.347656 459.019531 372.320312 447.332031 375.960938 L 447.09375 376.035156 L 446.882812 376.171875 C 413.617188 397.707031 384.128906 411.28125 351.269531 420.179688 C 347.648438 421.160156 344.140625 422.164062 340.710938 423.1875 C 340.585938 423.144531 340.460938 423.109375 340.335938 423.066406 L 340.253906 423.320312 C 332.222656 425.726562 324.671875 428.269531 317.433594 431.011719 C 317.082031 430.824219 316.726562 430.648438 316.378906 430.460938 L 315.742188 431.660156 C 299.941406 437.757812 285.601562 444.84375 271.046875 453.644531 L 206.980469 492.382812 C 160.535156 520.464844 114.089844 548.542969 67.65625 576.640625 L 66.144531 577.558594 L 67.015625 579.097656 C 93.675781 626.238281 130.292969 663.699219 177.785156 692.152344 C 208.835938 710.75 244.542969 725.496094 285.136719 736.566406 C 374.382812 760.902344 475.285156 764.214844 564.3125 767.140625 C 578.488281 767.605469 591.878906 768.042969 605.273438 768.5625 C 732.96875 773.492188 867.933594 780.964844 990.96875 812.714844 C 1130.429688 848.707031 1237.6875 911.511719 1318.875 1004.730469 L 1322.683594 1009.105469 Z M 253.386719 680.320312 L 281.84375 655.355469 C 298.558594 661.164062 315.835938 665.917969 333.515625 669.796875 L 305.15625 697.191406 C 286.902344 692.386719 269.65625 686.769531 253.386719 680.320312 Z M 302.097656 700.144531 L 272.445312 728.789062 L 272.890625 729.25 C 254.105469 723.597656 236.429688 717.105469 219.84375 709.75 L 250.3125 683.019531 C 266.589844 689.554688 283.84375 695.257812 302.097656 700.144531 Z M 278.453125 484.207031 C 283.957031 488.066406 289.597656 491.746094 295.398438 495.21875 C 297.25 496.328125 299.121094 497.410156 301.003906 498.480469 L 271.777344 518.746094 C 264.058594 513.828125 256.628906 508.5625 249.472656 502.953125 Z M 246.453125 500.574219 C 239.996094 495.363281 233.78125 489.851562 227.78125 484.058594 L 256.207031 466.871094 C 262.351562 472.175781 268.699219 477.199219 275.257812 481.9375 Z M 291.445312 446.449219 C 299.761719 442.21875 308.25 438.449219 317.210938 434.996094 C 323.859375 438.460938 330.617188 441.714844 337.492188 444.75 C 328.582031 449.425781 319.707031 454.289062 310.953125 459.421875 C 304.265625 455.367188 297.769531 451.039062 291.445312 446.449219 Z M 341.792969 446.609375 C 349.484375 449.882812 357.316406 452.902344 365.300781 455.652344 C 355.949219 461.507812 346.613281 467.476562 337.359375 473.59375 C 329.523438 469.894531 321.914062 465.882812 314.527344 461.550781 C 323.519531 456.324219 332.640625 451.375 341.792969 446.609375 Z M 388.382812 423.417969 C 397.058594 424.1875 405.925781 424.78125 414.984375 425.199219 C 411.625 427.246094 408.269531 429.285156 404.929688 431.316406 C 401.769531 433.238281 398.59375 435.171875 395.410156 437.109375 C 387.210938 435.5625 379.128906 433.808594 371.15625 431.84375 C 374.703125 430.105469 378.242188 428.375 381.769531 426.652344 C 383.96875 425.578125 386.175781 424.5 388.382812 423.417969 Z M 416.84375 398.875 C 423.335938 397.589844 429.84375 396.195312 436.335938 394.738281 C 428.808594 398.898438 421.230469 402.898438 413.636719 406.78125 C 407.800781 407.308594 401.964844 407.777344 396.121094 408.15625 C 402.964844 405.132812 409.804688 401.816406 416.707031 398.171875 Z M 485.976562 367.164062 C 496.578125 363.628906 507.285156 360.078125 518.085938 356.703125 C 508.277344 364.242188 498.265625 371.480469 488.128906 378.484375 C 485.300781 379.183594 482.476562 379.886719 479.671875 380.582031 C 472.945312 382.257812 466.140625 383.945312 459.296875 385.613281 C 468.464844 379.992188 477.5 374.039062 486.308594 367.621094 Z M 872.820312 276.085938 L 849.382812 311.589844 C 824.835938 320.796875 800.015625 329.945312 774.933594 338.5625 L 801.078125 305.910156 C 824.65625 296.636719 848.457031 286.632812 872.820312 276.085938 Z M 805.65625 300.191406 L 831.601562 267.785156 C 854.640625 257.4375 877.300781 246.589844 899.527344 235.621094 L 876.484375 270.53125 C 852.414062 280.992188 828.910156 290.941406 805.65625 300.191406 Z M 1262.117188 486.484375 C 1223.078125 460.109375 1178.128906 443.796875 1124.429688 436.921875 C 1125.8125 418.785156 1127.207031 400.574219 1128.605469 382.304688 C 1171.683594 384.4375 1215.214844 393.84375 1254.726562 418.160156 C 1257.191406 440.96875 1259.65625 463.746094 1262.117188 486.484375 Z M 175.695312 589.796875 L 205.464844 569.15625 C 213.71875 575.890625 222.417969 582.175781 231.566406 588.023438 L 201.355469 610.550781 C 192.4375 604.195312 183.871094 597.289062 175.695312 589.796875 Z M 198.28125 612.84375 L 170.179688 633.796875 C 161.109375 626.816406 152.523438 619.378906 144.402344 611.492188 L 172.632812 591.921875 C 180.808594 599.46875 189.367188 606.433594 198.28125 612.84375 Z M 172.96875 587.257812 C 165.839844 580.535156 159.015625 573.351562 152.535156 565.667969 L 181.425781 546.976562 C 188.109375 553.9375 195.15625 560.519531 202.5625 566.738281 Z M 539.394531 476.757812 C 558.625 475.738281 577.878906 473.878906 597.109375 471.410156 L 567.785156 503.15625 C 547.734375 505.011719 527.71875 506.164062 507.96875 506.332031 L 538.542969 476.796875 C 538.828125 476.785156 539.109375 476.773438 539.394531 476.757812 Z M 504.183594 509.988281 C 523.964844 509.945312 544.015625 508.898438 564.109375 507.132812 L 535.367188 538.253906 C 514.855469 539.300781 494.417969 539.59375 474.316406 538.839844 Z M 569.515625 506.644531 C 594.246094 504.320312 619 500.949219 643.351562 497.074219 L 616.261719 530.910156 C 591.273438 533.984375 565.890625 536.523438 540.585938 537.96875 Z M 573.222656 502.632812 L 602.773438 470.636719 C 626.625 467.421875 650.429688 463.300781 674.109375 458.664062 L 646.734375 492.847656 C 622.503906 496.761719 597.859375 500.199219 573.222656 502.632812 Z M 502.703125 506.355469 C 502.460938 506.355469 502.21875 506.359375 501.972656 506.359375 C 485.429688 506.332031 469.523438 505.589844 454.230469 504.121094 L 484.960938 477.164062 C 500.492188 477.804688 516.507812 477.765625 533.039062 477.054688 Z M 498.957031 509.976562 L 469.285156 538.640625 C 452.203125 537.847656 435.855469 536.292969 420.195312 533.980469 L 450.496094 507.398438 C 466.015625 509.003906 482.160156 509.859375 498.957031 509.976562 Z M 465.703125 542.101562 L 436.566406 570.25 C 419.238281 568.667969 402.695312 566.316406 386.898438 563.191406 L 416.617188 537.117188 C 432.277344 539.546875 448.628906 541.203125 465.703125 542.101562 Z M 470.691406 542.339844 C 490.824219 543.21875 511.292969 543.023438 531.84375 542.066406 L 503.523438 572.730469 C 482.589844 572.933594 461.78125 572.34375 441.371094 570.664062 Z M 537.03125 541.816406 C 562.425781 540.476562 587.90625 538.007812 613.007812 534.972656 L 586.152344 568.511719 C 560.472656 570.683594 534.429688 572.257812 508.535156 572.667969 Z M 618.175781 534.34375 C 647.996094 530.644531 677.222656 526.199219 705.046875 521.96875 C 707.085938 521.660156 709.109375 521.351562 711.125 521.046875 L 686.800781 557.894531 C 684.125 558.203125 681.429688 558.511719 678.710938 558.824219 C 650.636719 562.058594 621.171875 565.453125 591.15625 568.085938 Z M 704.5 518.371094 C 677.863281 522.421875 649.933594 526.664062 621.441406 530.261719 L 648.699219 496.21875 C 677.601562 491.523438 705.886719 486.175781 732.828125 481.078125 C 734.621094 480.738281 736.398438 480.402344 738.171875 480.066406 L 713.824219 516.957031 C 710.738281 517.421875 707.636719 517.894531 704.5 518.371094 Z M 732.152344 477.5 C 706.480469 482.359375 679.582031 487.441406 652.101562 491.972656 L 679.644531 457.570312 C 708.441406 451.832031 737.03125 445.40625 765.269531 439.015625 L 740.96875 475.835938 C 738.050781 476.386719 735.121094 476.941406 732.152344 477.5 Z M 768.164062 434.628906 C 740.136719 440.976562 711.753906 447.398438 683.175781 453.164062 L 710.574219 418.941406 C 738.050781 412.390625 765.308594 405.273438 792.277344 398.101562 Z M 677.625 454.269531 C 654.058594 458.949219 630.371094 463.144531 606.640625 466.453125 L 635.789062 434.894531 C 658.914062 430.644531 681.941406 425.675781 704.832031 420.292969 Z M 600.972656 467.226562 C 581.5 469.824219 562.011719 471.796875 542.546875 472.929688 L 571.917969 444.558594 C 573.859375 444.332031 575.796875 444.113281 577.75 443.875 C 595.15625 441.742188 612.53125 439.042969 629.855469 435.953125 Z M 537 473.226562 C 520.476562 474.046875 504.46875 474.195312 488.945312 473.664062 L 517.230469 448.851562 C 533.074219 448.226562 549.320312 447.011719 565.996094 445.214844 Z M 483.652344 473.46875 C 469.96875 472.863281 456.671875 471.710938 443.734375 470.035156 L 469.902344 448.945312 C 483.453125 449.457031 497.296875 449.503906 511.46875 449.0625 Z M 479.726562 476.914062 L 449.292969 503.609375 C 435.609375 502.144531 422.417969 500.101562 409.707031 497.449219 L 439.8125 473.195312 C 452.75 474.972656 466.050781 476.207031 479.726562 476.914062 Z M 445.582031 506.867188 L 415.5 533.257812 C 401.695312 531.058594 388.445312 528.253906 375.722656 524.835938 L 406.058594 500.390625 C 418.753906 503.144531 431.921875 505.300781 445.582031 506.867188 Z M 411.953125 536.371094 L 382.40625 562.289062 C 368.484375 559.378906 355.15625 555.84375 342.394531 551.691406 L 372.21875 527.65625 C 384.929688 531.175781 398.167969 534.078125 411.953125 536.371094 Z M 378.992188 565.285156 L 350.367188 590.398438 C 336.746094 586.824219 323.375 582.570312 310.300781 577.554688 L 339.003906 554.421875 C 351.757812 558.667969 365.085938 562.285156 378.992188 565.285156 Z M 383.445312 566.21875 C 399.246094 569.453125 415.792969 571.90625 433.113281 573.585938 L 404.601562 601.125 C 387.675781 598.753906 370.992188 595.589844 354.648438 591.488281 Z M 437.886719 574.03125 C 458.324219 575.832031 479.164062 576.515625 500.136719 576.398438 L 472.070312 606.785156 C 450.882812 606.050781 429.867188 604.46875 409.195312 601.75 Z M 505.128906 576.355469 C 531.097656 576.054688 557.234375 574.554688 583.015625 572.433594 L 556.152344 605.980469 C 529.722656 607.179688 503.1875 607.683594 476.890625 606.929688 Z M 588.015625 572.007812 C 619.265625 569.335938 649.949219 565.804688 679.128906 562.441406 C 680.824219 562.246094 682.503906 562.050781 684.183594 561.859375 L 659.734375 598.898438 C 658.992188 598.957031 658.253906 599.015625 657.507812 599.074219 C 625.953125 601.589844 593.570312 604.167969 561 605.75 Z M 688.902344 561.316406 C 703.820312 559.601562 718.152344 557.980469 732.335938 556.519531 C 743.03125 555.417969 753.816406 554.273438 764.671875 553.121094 C 778.042969 551.703125 791.480469 550.277344 804.964844 548.90625 L 784.699219 589.90625 C 764.785156 591.167969 744.941406 592.582031 725.230469 593.988281 C 719.046875 594.425781 712.878906 594.867188 706.738281 595.300781 C 692.785156 596.28125 678.863281 597.375 664.339844 598.53125 Z M 764.289062 549.5 C 753.433594 550.652344 742.652344 551.796875 731.960938 552.898438 C 718.722656 554.261719 705.363281 555.765625 691.519531 557.351562 L 715.96875 520.3125 C 730.472656 518.113281 744.433594 516.023438 758.238281 514.101562 C 773.417969 511.984375 788.574219 509.746094 804.625 507.375 C 812.082031 506.273438 819.585938 505.164062 827.132812 504.066406 L 806.871094 545.054688 C 792.617188 546.496094 778.414062 548.003906 764.289062 549.5 Z M 804.09375 503.773438 C 788.050781 506.144531 772.898438 508.382812 757.734375 510.496094 C 744.941406 512.28125 732.027344 514.199219 718.667969 516.222656 L 743.15625 479.125 C 756.972656 476.519531 770.28125 474.03125 783.488281 471.683594 C 790.078125 470.515625 796.671875 469.335938 803.265625 468.15625 C 818.367188 465.460938 833.578125 462.746094 848.863281 460.101562 L 829.089844 500.101562 C 820.707031 501.320312 812.371094 502.550781 804.09375 503.773438 Z M 802.625 464.574219 C 796.03125 465.753906 789.441406 466.929688 782.851562 468.101562 C 770.734375 470.253906 758.542969 472.523438 745.949219 474.894531 L 770.398438 437.859375 C 783.042969 434.996094 796.078125 432.046875 808.71875 429.257812 C 816.652344 427.511719 824.589844 425.746094 832.527344 423.984375 C 845.242188 421.160156 858.039062 418.320312 870.898438 415.515625 L 850.859375 456.0625 C 834.6875 458.851562 818.597656 461.722656 802.625 464.574219 Z M 831.738281 420.429688 C 823.800781 422.195312 815.867188 423.957031 807.933594 425.703125 C 796.511719 428.222656 784.78125 430.871094 773.292969 433.472656 L 797.566406 396.695312 C 802.914062 395.269531 808.253906 393.847656 813.574219 392.421875 C 820.582031 390.550781 827.5625 388.6875 834.515625 386.835938 C 845.808594 383.835938 857.097656 380.796875 868.394531 377.753906 C 876.492188 375.574219 884.636719 373.382812 892.804688 371.199219 L 872.960938 411.347656 C 859.144531 414.351562 845.390625 417.398438 831.738281 420.429688 Z M 897.484375 369.949219 C 933.367188 360.378906 969.847656 350.984375 1006.496094 343.082031 L 993 388.410156 C 954.300781 394.316406 915.648438 402.113281 877.507812 410.363281 Z M 899.628906 365.613281 L 919.664062 325.074219 C 953.046875 314.328125 987.007812 303.601562 1021.132812 293.90625 L 1007.675781 339.109375 C 971.351562 346.886719 935.199219 356.144531 899.628906 365.613281 Z M 894.949219 366.859375 C 885.742188 369.316406 876.566406 371.785156 867.445312 374.242188 C 856.15625 377.277344 844.871094 380.316406 833.582031 383.320312 C 826.625 385.167969 819.644531 387.035156 812.636719 388.90625 C 808.628906 389.976562 804.605469 391.050781 800.585938 392.125 L 824.632812 355.695312 C 828.136719 354.566406 831.640625 353.4375 835.136719 352.3125 C 843.34375 349.667969 851.546875 347.023438 859.75 344.398438 C 871.925781 340.503906 884.097656 336.566406 896.273438 332.628906 C 902.4375 330.632812 908.628906 328.632812 914.835938 326.632812 Z M 795.292969 393.535156 C 768.558594 400.65625 741.527344 407.742188 714.289062 414.304688 L 740.28125 381.839844 C 766.839844 374.128906 793.128906 365.8125 819.097656 357.472656 Z M 708.519531 415.6875 C 685.777344 421.09375 662.894531 426.097656 639.921875 430.417969 L 667.210938 400.875 C 689.714844 395.796875 712.0625 389.921875 734.222656 383.582031 Z M 633.945312 431.527344 C 615.113281 434.96875 596.226562 437.941406 577.308594 440.261719 C 576.949219 440.304688 576.59375 440.34375 576.234375 440.386719 L 604.949219 412.648438 C 610.550781 411.773438 616.1875 410.859375 621.871094 409.894531 C 634.949219 407.679688 647.984375 405.109375 660.964844 402.273438 Z M 570.273438 441.085938 C 553.625 442.976562 537.40625 444.289062 521.59375 445.023438 L 550.125 419.992188 C 565.949219 418.25 582.15625 416.113281 598.722656 413.605469 Z M 515.800781 445.265625 C 501.628906 445.800781 487.773438 445.871094 474.230469 445.460938 L 500.515625 424.28125 C 514.617188 423.414062 529.066406 422.207031 543.84375 420.660156 Z M 468.679688 445.257812 C 457.125 444.792969 445.789062 443.984375 434.664062 442.820312 C 442.507812 437.210938 450.394531 431.570312 458.308594 425.886719 C 470.019531 425.734375 482.015625 425.3125 494.265625 424.640625 Z M 464.386719 448.71875 L 438.757812 469.367188 C 427.550781 467.785156 416.617188 465.789062 405.945312 463.382812 C 414.085938 457.535156 422.191406 451.738281 430.214844 446 C 441.394531 447.257812 452.777344 448.164062 464.386719 448.71875 Z M 434.898438 472.480469 L 405.132812 496.460938 C 393.90625 493.972656 383.054688 491.007812 372.566406 487.566406 C 382.363281 480.390625 392.203125 473.265625 402.007812 466.210938 C 412.707031 468.714844 423.667969 470.804688 434.898438 472.480469 Z M 401.511719 499.378906 L 371.394531 523.648438 C 360.117188 520.460938 349.261719 516.777344 338.816406 512.597656 L 353.734375 501.476562 C 358.785156 497.710938 363.867188 493.960938 368.960938 490.21875 C 379.445312 493.75 390.292969 496.800781 401.511719 499.378906 Z M 367.925781 526.445312 L 338.273438 550.335938 C 326.957031 546.5 316.097656 542.152344 305.679688 537.304688 L 335.398438 515.148438 C 345.832031 519.410156 356.667969 523.175781 367.925781 526.445312 Z M 334.917969 553.039062 L 306.394531 576.023438 C 295.304688 571.617188 284.4375 566.652344 273.832031 561.050781 L 302.355469 539.785156 C 312.765625 544.707031 323.617188 549.125 334.917969 553.039062 Z M 303.109375 578.671875 L 270.4375 604.996094 C 259.058594 599.789062 248.25 594.050781 238.003906 587.765625 L 270.589844 563.46875 C 281.1875 569.140625 292.035156 574.195312 303.109375 578.671875 Z M 306.992188 580.214844 C 320.0625 585.324219 333.433594 589.65625 347.046875 593.3125 L 314.691406 621.695312 C 300.457031 617.339844 286.964844 612.324219 274.175781 606.660156 Z M 351.289062 594.429688 C 367.640625 598.640625 384.328125 601.890625 401.261719 604.351562 L 369.828125 634.714844 C 351.890625 631.582031 334.890625 627.65625 318.8125 622.921875 Z M 405.824219 605.003906 C 426.53125 607.832031 447.582031 609.503906 468.804688 610.320312 L 438.890625 642.703125 C 417.035156 641.289062 395.390625 638.992188 374.265625 635.488281 Z M 473.605469 610.484375 C 499.980469 611.339844 526.601562 610.910156 553.125 609.761719 L 525.386719 644.40625 C 498.222656 644.867188 470.757812 644.59375 443.582031 642.992188 Z M 557.964844 609.542969 C 591.449219 607.980469 624.753906 605.335938 657.191406 602.75 L 632.574219 640.046875 C 631.109375 640.121094 629.648438 640.199219 628.167969 640.277344 C 596.753906 641.921875 563.695312 643.644531 530.121094 644.316406 Z M 661.792969 602.386719 C 677.335938 601.148438 692.15625 599.976562 706.992188 598.929688 C 713.136719 598.496094 719.304688 598.058594 725.492188 597.617188 C 744.5 596.261719 763.636719 594.898438 782.839844 593.667969 L 762.570312 634.675781 C 737.078125 635.4375 711.671875 636.464844 686.46875 637.488281 L 680.964844 637.710938 C 666.710938 638.289062 652.214844 639.023438 637.089844 639.808594 Z M 787.03125 593.40625 C 835.636719 590.347656 884.65625 588.222656 933.1875 589.351562 L 919.367188 635.78125 C 868.746094 632.769531 817.558594 633.09375 766.691406 634.550781 Z M 788.890625 589.640625 L 809.238281 548.472656 C 855.3125 543.832031 901.898438 539.902344 948.144531 539.105469 L 934.261719 585.738281 C 885.976562 584.570312 837.230469 586.625 788.890625 589.640625 Z M 811.144531 544.625 L 831.503906 503.429688 C 874.652344 497.164062 919.035156 491.234375 963.269531 488.296875 L 949.234375 535.445312 C 903.242188 536.183594 856.941406 540.035156 811.144531 544.625 Z M 833.464844 499.464844 L 853.300781 459.335938 C 894.269531 452.285156 935.75 445.808594 977.171875 441.582031 L 964.378906 484.5625 C 920.4375 487.425781 876.355469 493.257812 833.464844 499.464844 Z M 855.296875 455.296875 L 875.445312 414.53125 C 913.886719 406.195312 952.855469 398.273438 991.855469 392.265625 L 978.296875 437.8125 C 937.15625 441.957031 895.976562 448.324219 855.296875 455.296875 Z M 995.832031 391.660156 C 1010.414062 389.464844 1024.996094 387.527344 1039.550781 385.960938 C 1066.820312 383.03125 1095.761719 380.972656 1124.964844 382.144531 C 1123.574219 400.320312 1122.191406 418.4375 1120.8125 436.484375 C 1092.464844 433.101562 1061.714844 432.285156 1028.121094 433.972656 C 1012.84375 434.742188 997.53125 435.929688 982.210938 437.417969 Z M 1039.164062 382.34375 C 1025.113281 383.855469 1011.046875 385.707031 996.980469 387.804688 L 1010.550781 342.21875 C 1023.976562 339.367188 1037.417969 336.707031 1050.863281 334.335938 C 1076.039062 329.894531 1102.671875 325.757812 1129.398438 324.324219 C 1128.007812 342.421875 1126.621094 360.488281 1125.242188 378.507812 C 1095.792969 377.316406 1066.632812 379.390625 1039.164062 382.34375 Z M 1050.230469 330.753906 C 1037.390625 333.019531 1024.550781 335.542969 1011.730469 338.246094 L 1025.277344 292.738281 C 1038.507812 289.015625 1051.757812 285.445312 1065.007812 282.105469 C 1086.269531 276.746094 1109.648438 270.851562 1133.804688 267.066406 C 1132.425781 284.945312 1131.050781 302.8125 1129.679688 320.660156 C 1102.621094 322.082031 1075.683594 326.261719 1050.230469 330.753906 Z M 1064.117188 278.574219 C 1051.570312 281.738281 1039.027344 285.109375 1026.503906 288.617188 L 1040.03125 243.175781 C 1051.335938 239.066406 1062.648438 235.03125 1073.953125 231.128906 L 1080.191406 228.972656 C 1099.285156 222.359375 1118.636719 215.667969 1138.207031 210.210938 C 1136.832031 227.910156 1135.460938 245.625 1134.09375 263.335938 C 1109.496094 267.136719 1085.722656 273.128906 1064.117188 278.574219 Z M 1022.363281 289.773438 C 988.582031 299.324219 954.96875 309.898438 921.910156 320.53125 L 941.761719 280.371094 C 943.109375 279.851562 944.476562 279.324219 945.820312 278.804688 C 975.289062 267.441406 1005.464844 255.820312 1035.769531 244.738281 Z M 917.085938 322.082031 C 909.746094 324.445312 902.433594 326.8125 895.152344 329.164062 C 882.980469 333.101562 870.8125 337.035156 858.640625 340.933594 C 850.433594 343.558594 842.230469 346.203125 834.019531 348.847656 C 831.964844 349.511719 829.898438 350.175781 827.835938 350.839844 L 851.769531 314.582031 C 859.050781 311.851562 866.320312 309.113281 873.554688 306.386719 L 885.292969 301.960938 C 902.4375 295.507812 919.769531 288.847656 936.746094 282.304688 Z M 822.296875 352.621094 C 796.578125 360.894531 770.539062 369.179688 744.242188 376.894531 L 770.699219 343.847656 C 796.0625 335.230469 821.160156 326.042969 845.972656 316.757812 Z M 738.164062 378.660156 C 716.140625 385.035156 693.933594 390.972656 671.582031 396.144531 L 699.535156 365.875 C 721.304688 359.898438 742.898438 353.195312 764.296875 346.023438 Z M 665.304688 397.574219 C 650.679688 400.855469 636 403.8125 621.261719 406.308594 C 617.324219 406.976562 613.410156 407.613281 609.511719 408.238281 L 638.519531 380.21875 C 643.1875 379.371094 647.851562 378.480469 652.492188 377.476562 C 666.035156 374.558594 679.507812 371.257812 692.917969 367.679688 Z M 603.246094 409.234375 C 586.773438 411.796875 570.667969 413.972656 554.925781 415.785156 L 587.203125 387.464844 C 602.050781 385.753906 617.105469 383.875 632.105469 381.355469 Z M 548.589844 416.5 C 533.871094 418.105469 519.480469 419.378906 505.429688 420.320312 L 539.105469 393.183594 C 551.253906 391.542969 563.445312 390.160156 575.335938 388.820312 C 577.167969 388.613281 579.011719 388.402344 580.855469 388.195312 Z M 499.128906 420.722656 C 486.988281 421.457031 475.113281 421.925781 463.492188 422.152344 C 473.617188 414.867188 483.765625 407.507812 493.902344 400.066406 C 499.730469 399.167969 505.53125 398.261719 511.304688 397.363281 C 516.179688 396.601562 521.058594 395.839844 525.941406 395.082031 C 527.96875 394.769531 530.011719 394.492188 532.046875 394.195312 Z M 457.121094 422.253906 C 446.929688 422.375 436.949219 422.296875 427.179688 422.015625 C 435.761719 416.757812 444.367188 411.433594 452.957031 406 C 464.074219 404.53125 475.136719 402.921875 486.117188 401.257812 C 476.445312 408.324219 466.765625 415.324219 457.121094 422.253906 Z M 451.992188 425.9375 C 444.621094 431.222656 437.273438 436.480469 429.964844 441.703125 C 429.722656 441.878906 429.472656 442.058594 429.226562 442.230469 C 419.59375 441.121094 410.117188 439.742188 400.789062 438.097656 C 402.800781 436.871094 404.816406 435.644531 406.820312 434.429688 C 411.707031 431.457031 416.613281 428.472656 421.53125 425.472656 C 431.464844 425.835938 441.621094 425.988281 451.992188 425.9375 Z M 424.851562 445.363281 C 417.03125 450.953125 409.152344 456.59375 401.238281 462.285156 C 391.894531 460.058594 382.753906 457.511719 373.800781 454.640625 C 381.257812 450.015625 388.710938 445.449219 396.117188 440.9375 C 405.542969 442.683594 415.117188 444.160156 424.851562 445.363281 Z M 397.332031 465.097656 C 387.667969 472.058594 377.984375 479.078125 368.34375 486.152344 C 359.023438 482.949219 349.992188 479.359375 341.238281 475.386719 C 350.6875 469.171875 360.21875 463.109375 369.761719 457.160156 C 378.757812 460.128906 387.941406 462.78125 397.332031 465.097656 Z M 364.78125 488.769531 C 360.359375 492.023438 355.949219 495.285156 351.558594 498.558594 L 334.886719 510.988281 C 325.5625 507.109375 316.566406 502.828125 307.894531 498.132812 L 321.960938 488.378906 C 327.148438 484.78125 332.398438 481.253906 337.664062 477.757812 C 346.421875 481.816406 355.457031 485.488281 364.78125 488.769531 Z M 331.488281 513.523438 L 301.964844 535.535156 C 292.664062 531.054688 283.714844 526.167969 275.121094 520.855469 L 304.535156 500.460938 C 313.195312 505.226562 322.179688 509.574219 331.488281 513.523438 Z M 276.636719 526.058594 C 283.746094 530.316406 291.085938 534.292969 298.660156 538 L 270.300781 559.144531 C 261.167969 554.171875 252.230469 548.730469 243.515625 542.773438 L 271.871094 523.109375 C 273.457031 524.097656 275.03125 525.097656 276.636719 526.058594 Z M 257.253906 555.929688 C 260.496094 557.871094 263.769531 559.742188 267.0625 561.558594 L 234.707031 585.683594 C 225.550781 579.894531 216.835938 573.675781 208.582031 566.992188 L 240.292969 545.007812 C 245.859375 548.851562 251.515625 552.492188 257.253906 555.929688 Z M 234.871094 590.101562 C 236.144531 590.894531 237.417969 591.6875 238.707031 592.460938 C 247.796875 597.90625 257.320312 602.925781 267.273438 607.546875 L 236.777344 632.121094 C 225.605469 626.332031 214.820312 619.898438 204.492188 612.753906 Z M 270.988281 609.230469 C 283.773438 614.976562 297.265625 620.066406 311.488281 624.507812 L 281.066406 651.195312 C 267.039062 646.234375 253.425781 640.515625 240.328125 633.933594 Z M 315.578125 625.761719 C 331.660156 630.59375 348.660156 634.617188 366.59375 637.839844 L 336.679688 666.738281 C 319.007812 662.941406 301.726562 658.28125 285.019531 652.570312 Z M 371.027344 638.617188 C 371.894531 638.765625 372.742188 638.925781 373.609375 639.070312 C 393.933594 642.445312 414.726562 644.703125 435.71875 646.140625 L 406.761719 677.492188 C 384.476562 675.246094 362.449219 672.070312 340.980469 667.644531 Z M 440.394531 646.441406 C 467.640625 648.148438 495.179688 648.496094 522.4375 648.089844 L 495.105469 682.226562 C 467.199219 681.796875 439.070312 680.570312 411.304688 677.933594 Z M 527.15625 648.015625 C 561.824219 647.390625 595.964844 645.605469 628.359375 643.910156 C 628.9375 643.878906 629.507812 643.851562 630.082031 643.820312 L 605.472656 681.101562 C 605.257812 681.109375 605.050781 681.113281 604.835938 681.117188 C 571.054688 681.90625 535.597656 682.730469 499.714844 682.289062 Z M 634.601562 643.582031 C 650.6875 642.742188 666.035156 641.960938 681.113281 641.347656 L 686.617188 641.125 C 711.167969 640.128906 735.914062 639.128906 760.742188 638.371094 L 740.4375 679.453125 C 711.699219 679.429688 683.511719 679.773438 656.242188 680.105469 C 641.265625 680.289062 625.964844 680.628906 609.902344 681 Z M 764.863281 638.25 C 815.992188 636.753906 867.445312 636.378906 918.296875 639.367188 L 904.46875 685.824219 C 850.804688 680.9375 796.765625 679.570312 744.492188 679.464844 Z M 922.027344 639.59375 C 951.742188 641.4375 981.238281 644.445312 1010.332031 649.074219 C 1043.152344 654.300781 1073.957031 661.4375 1102.886719 670.511719 C 1101.492188 688.570312 1100.09375 706.632812 1098.691406 724.675781 C 1068.777344 714.398438 1036.941406 706 1003.039062 699.457031 C 971.867188 693.445312 940.089844 689.183594 908.160156 686.179688 Z M 1106.449219 671.632812 C 1181.21875 695.628906 1243.25 732.8125 1294.464844 784.097656 C 1296.933594 806.75 1299.398438 829.332031 1301.851562 851.828125 C 1247.933594 795.503906 1182.070312 753.871094 1102.246094 725.902344 C 1103.652344 707.824219 1105.050781 689.726562 1106.449219 671.632812 Z M 1106.738281 667.894531 C 1108.136719 649.757812 1109.53125 631.625 1110.921875 613.519531 C 1180.023438 633.238281 1237.9375 665.320312 1286.449219 710.519531 C 1288.921875 733.210938 1291.386719 755.824219 1293.84375 778.371094 C 1242.632812 728.105469 1180.886719 691.558594 1106.738281 667.894531 Z M 1103.171875 666.789062 C 1074.308594 657.78125 1043.597656 650.6875 1010.90625 645.480469 C 981.957031 640.875 952.625 637.871094 923.09375 636.015625 L 936.957031 589.445312 C 965.730469 590.214844 994.324219 592.144531 1022.550781 595.734375 C 1052.527344 599.546875 1080.753906 605.140625 1107.347656 612.527344 C 1105.960938 630.59375 1104.570312 648.6875 1103.171875 666.789062 Z M 1023.007812 592.125 C 994.972656 588.558594 966.585938 586.621094 938.03125 585.832031 L 951.960938 539.042969 C 979.835938 538.671875 1007.582031 539.460938 1035.003906 541.957031 C 1062.085938 544.421875 1087.648438 548.515625 1111.816406 554.238281 C 1110.425781 572.390625 1109.03125 590.59375 1107.632812 608.828125 C 1081.070312 601.492188 1052.90625 595.925781 1023.007812 592.125 Z M 1035.335938 538.332031 C 1008.144531 535.855469 980.65625 535.054688 953.046875 535.390625 L 967.140625 488.050781 C 1017.828125 484.890625 1068.269531 485.765625 1116.367188 494.703125 C 1114.949219 513.246094 1113.527344 531.878906 1112.097656 550.5625 C 1087.929688 544.871094 1062.382812 540.792969 1035.335938 538.332031 Z M 968.246094 484.324219 L 981.089844 441.191406 C 996.847656 439.636719 1012.597656 438.398438 1028.304688 437.609375 C 1061.753906 435.929688 1092.351562 436.742188 1120.535156 440.117188 C 1119.816406 449.539062 1119.097656 458.945312 1118.378906 468.316406 C 1117.804688 475.871094 1117.226562 483.441406 1116.648438 491.027344 C 1068.761719 482.171875 1018.625 481.246094 968.246094 484.324219 Z M 1122.011719 468.59375 C 1122.722656 459.277344 1123.4375 449.925781 1124.152344 440.5625 C 1178.367188 447.53125 1223.535156 464.191406 1262.632812 491.234375 C 1265.085938 513.890625 1267.539062 536.511719 1269.988281 559.078125 C 1224.90625 522.730469 1174.035156 502.136719 1120.246094 491.71875 C 1120.835938 483.996094 1121.421875 476.285156 1122.011719 468.59375 Z M 1128.882812 378.675781 C 1130.269531 360.542969 1131.664062 342.355469 1133.0625 324.144531 C 1172.355469 322.402344 1211.714844 326.765625 1246.8125 344.890625 C 1249.285156 367.816406 1251.757812 390.722656 1254.230469 413.59375 C 1214.78125 389.996094 1171.585938 380.800781 1128.882812 378.675781 Z M 1133.34375 320.484375 C 1134.722656 302.511719 1136.109375 284.515625 1137.496094 266.515625 C 1171.140625 261.570312 1206.148438 260.96875 1238.9375 271.773438 C 1241.40625 294.730469 1243.878906 317.671875 1246.351562 340.59375 C 1211.242188 323.085938 1172.234375 318.804688 1133.34375 320.484375 Z M 1137.785156 262.785156 C 1139.164062 244.914062 1140.550781 227.042969 1141.9375 209.1875 C 1171.199219 201.28125 1200.953125 196.34375 1231.097656 198.777344 C 1233.566406 221.800781 1236.039062 244.816406 1238.511719 267.820312 C 1205.773438 257.402344 1171.097656 257.960938 1137.785156 262.785156 Z M 1142.238281 205.335938 C 1143.605469 187.769531 1144.972656 170.226562 1146.347656 152.722656 C 1171.335938 142.375 1196.925781 133.003906 1223.304688 126.011719 C 1225.765625 149.042969 1228.234375 172.070312 1230.703125 195.097656 C 1200.703125 192.785156 1171.207031 197.59375 1142.238281 205.335938 Z M 1138.507812 206.347656 C 1118.414062 211.894531 1098.574219 218.753906 1079 225.53125 L 1072.765625 227.6875 C 1062.289062 231.308594 1051.800781 235.035156 1041.324219 238.832031 L 1054.777344 193.636719 C 1065.0625 188.898438 1075.382812 184.164062 1085.632812 179.5 C 1104.316406 170.996094 1123.269531 162.382812 1142.570312 154.296875 C 1141.214844 171.617188 1139.859375 188.972656 1138.507812 206.347656 Z M 1037.0625 240.386719 C 1005.875 251.753906 974.820312 263.722656 944.511719 275.410156 C 944.390625 275.457031 944.265625 275.503906 944.144531 275.550781 L 963.914062 235.550781 C 982.773438 226.929688 1001.527344 218.253906 1019.957031 209.722656 C 1029.972656 205.089844 1040.152344 200.378906 1050.378906 195.664062 Z M 939.128906 277.484375 C 920.988281 284.480469 902.390625 291.636719 884.011719 298.554688 L 872.269531 302.980469 C 866.589844 305.121094 860.890625 307.269531 855.179688 309.414062 L 878.925781 273.4375 C 889.398438 268.882812 899.96875 264.242188 910.6875 259.511719 C 926.660156 252.460938 942.695312 245.226562 958.675781 237.941406 Z M 768.523438 340.746094 C 747.269531 347.949219 725.835938 354.730469 704.226562 360.796875 L 731.8125 330.933594 C 752.652344 324.160156 773.394531 316.675781 794.277344 308.578125 Z M 697.566406 362.644531 C 682.367188 366.800781 667.089844 370.605469 651.726562 373.917969 C 648.910156 374.527344 646.085938 375.089844 643.261719 375.636719 L 671.769531 348.097656 C 675.535156 347.226562 679.292969 346.3125 683.042969 345.328125 C 697.046875 341.648438 710.921875 337.597656 724.742188 333.222656 Z M 636.789062 376.832031 C 621.882812 379.5 606.867188 381.488281 592.019531 383.238281 L 621.582031 357.304688 C 635.964844 355.148438 650.496094 352.71875 664.976562 349.601562 Z M 585.652344 383.980469 C 582.066406 384.394531 578.488281 384.800781 574.929688 385.203125 C 564.941406 386.328125 554.742188 387.5 544.53125 388.8125 L 575.292969 364.027344 C 583.699219 362.746094 592.082031 361.546875 600.292969 360.382812 C 605.148438 359.695312 610.042969 358.992188 614.953125 358.28125 Z M 537.613281 389.710938 C 533.527344 390.269531 529.449219 390.855469 525.382812 391.484375 C 520.5 392.242188 515.617188 393.003906 510.742188 393.765625 C 507.253906 394.3125 503.75 394.855469 500.242188 395.402344 C 510.648438 387.71875 521.027344 379.9375 531.335938 372.050781 C 540.589844 370.050781 549.867188 368.199219 559.132812 366.617188 C 562.117188 366.105469 565.109375 365.621094 568.105469 365.144531 Z M 492.464844 396.605469 C 481.808594 398.246094 471.070312 399.847656 460.277344 401.339844 C 470.132812 395.019531 479.945312 388.546875 489.648438 381.855469 C 500.617188 379.136719 511.71875 376.441406 522.878906 373.921875 C 512.789062 381.578125 502.636719 389.132812 492.464844 396.605469 Z M 479.46875 384.382812 C 470.269531 390.582031 460.988281 396.601562 451.679688 402.5 C 442.277344 403.734375 432.839844 404.863281 423.382812 405.835938 C 431.902344 401.378906 440.390625 396.753906 448.792969 391.878906 C 459.117188 389.445312 469.375 386.894531 479.46875 384.382812 Z M 388.589844 412.25 C 394.046875 411.960938 399.503906 411.59375 404.953125 411.167969 C 399.191406 414.054688 393.429688 416.894531 387.695312 419.703125 C 382.0625 419.195312 376.503906 418.617188 371.035156 417.957031 C 376.925781 415.957031 382.746094 413.78125 388.542969 411.402344 Z M 414.671875 410.339844 C 424.597656 409.429688 434.496094 408.335938 444.363281 407.105469 C 436.421875 412.074219 428.476562 416.964844 420.5625 421.800781 C 411.777344 421.464844 403.175781 420.960938 394.746094 420.296875 C 401.375 417.039062 408.027344 413.730469 414.671875 410.339844 Z M 390.800781 439.921875 C 383.65625 444.28125 376.480469 448.691406 369.296875 453.160156 C 361.382812 450.507812 353.613281 447.605469 345.992188 444.4375 C 352.695312 440.996094 359.40625 437.636719 366.09375 434.335938 C 374.214844 436.417969 382.449219 438.273438 390.800781 439.921875 Z M 310.921875 463.65625 C 318.328125 468.074219 325.960938 472.164062 333.820312 475.941406 C 329.148438 479.054688 324.496094 482.191406 319.886719 485.390625 L 304.339844 496.167969 C 296.550781 491.804688 289.027344 487.105469 281.757812 482.066406 L 295.304688 473.304688 C 300.449219 469.976562 305.664062 466.765625 310.921875 463.65625 Z M 268.527344 521 L 240.324219 540.554688 C 232.714844 535.207031 225.269531 529.476562 218.019531 523.300781 L 246.25 505.039062 C 253.402344 510.699219 260.820312 516.027344 268.527344 521 Z M 237.121094 542.777344 L 205.675781 564.582031 C 198.269531 558.410156 191.234375 551.867188 184.558594 544.949219 L 214.832031 525.367188 C 222.078125 531.585938 229.515625 537.378906 237.121094 542.777344 Z M 181.984375 542.28125 C 175.972656 535.875 170.273438 529.144531 164.855469 522.113281 C 174.3125 516.394531 183.769531 510.671875 193.226562 504.953125 C 199.320312 511.277344 205.570312 517.25 211.96875 522.882812 Z M 178.890625 544.28125 L 150.191406 562.847656 C 144.5 555.902344 139.082031 548.558594 133.953125 540.800781 C 143.207031 535.203125 152.460938 529.605469 161.71875 524.011719 C 167.148438 531.082031 172.871094 537.839844 178.890625 544.28125 Z M 147.132812 564.824219 L 118.769531 583.175781 C 112.902344 575.789062 107.355469 568.082031 102.113281 560.058594 C 111.691406 554.265625 121.269531 548.472656 130.84375 542.679688 C 135.992188 550.472656 141.429688 557.84375 147.132812 564.824219 Z M 149.457031 567.660156 C 155.945312 575.386719 162.765625 582.621094 169.898438 589.386719 L 141.761719 608.894531 C 134.480469 601.648438 127.589844 594.023438 121.074219 586.019531 Z M 138.722656 611.003906 L 109.144531 631.511719 C 102.023438 623.640625 95.335938 615.378906 89.066406 606.726562 L 117.988281 588.015625 C 124.519531 596.058594 131.4375 603.710938 138.722656 611.003906 Z M 141.347656 613.613281 C 149.476562 621.546875 158.078125 629.019531 167.152344 636.054688 L 137.015625 658.527344 C 128.027344 650.886719 119.582031 642.777344 111.640625 634.210938 Z M 170.152344 638.359375 C 179.175781 645.179688 188.648438 651.578125 198.605469 657.542969 C 199.871094 658.300781 201.160156 659.042969 202.445312 659.785156 L 172.03125 684.292969 C 160.660156 677.058594 149.953125 669.269531 139.890625 660.921875 Z M 173.207031 636.082031 L 201.40625 615.054688 C 206.984375 618.953125 212.679688 622.660156 218.511719 626.152344 C 223.472656 629.125 228.519531 631.949219 233.648438 634.640625 L 205.492188 657.328125 C 194.132812 650.789062 183.375 643.707031 173.207031 636.082031 Z M 237.191406 636.460938 C 250.285156 643.125 263.882812 648.933594 277.902344 653.972656 L 249.601562 678.800781 C 235.265625 672.953125 221.695312 666.449219 208.886719 659.269531 Z M 337.792969 670.722656 C 359.289062 675.253906 381.34375 678.523438 403.664062 680.84375 L 375.675781 711.144531 C 355.617188 708.300781 335.847656 704.6875 316.613281 700.085938 C 314.148438 699.496094 311.714844 698.878906 309.285156 698.261719 Z M 408.195312 681.300781 C 436.03125 684.035156 464.230469 685.339844 492.226562 685.820312 L 465.335938 719.402344 C 436.828125 717.929688 408.1875 715.574219 380.070312 711.75 Z M 462.535156 722.902344 L 435.757812 756.347656 L 436.875 757.242188 C 407.085938 754.851562 377.203125 751.488281 347.960938 746.515625 L 377.058594 715.011719 C 405.238281 718.9375 433.949219 721.371094 462.535156 722.902344 Z M 467.011719 723.136719 C 504.117188 725.007812 540.941406 725.417969 576.046875 725.683594 L 551.367188 763.070312 C 515.300781 761.863281 477.515625 760.429688 439.535156 757.453125 Z M 469.816406 719.632812 L 496.832031 685.890625 C 533.0625 686.402344 568.882812 685.59375 603.03125 684.800781 L 578.4375 722.0625 C 543.496094 721.804688 506.800781 721.429688 469.816406 719.632812 Z M 607.460938 684.699219 C 624.4375 684.304688 640.546875 683.9375 656.289062 683.746094 C 682.972656 683.421875 710.539062 683.085938 738.636719 683.09375 L 718.265625 724.308594 C 688.347656 723.417969 658.839844 722.933594 630.230469 722.53125 C 615.90625 722.332031 601.589844 722.230469 586.429688 722.121094 C 585.214844 722.113281 583.992188 722.101562 582.777344 722.09375 Z M 742.695312 683.101562 C 795.195312 683.175781 849.5 684.507812 903.410156 689.386719 L 889.535156 735.996094 C 865.886719 733.144531 841.0625 730.804688 814.867188 728.953125 C 783.9375 726.769531 752.898438 725.378906 722.265625 724.429688 Z M 907.101562 689.734375 C 939.164062 692.734375 971.070312 697 1002.347656 703.03125 C 1036.421875 709.605469 1068.386719 718.0625 1098.398438 728.425781 C 1096.984375 746.625 1095.566406 764.800781 1094.144531 782.9375 C 1063.769531 771.617188 1031.507812 762.078125 997.242188 754.292969 C 965.027344 746.972656 930.578125 741.066406 893.195312 736.453125 Z M 1101.953125 729.652344 C 1182.441406 758 1248.59375 800.34375 1302.5 857.769531 C 1304.941406 880.144531 1307.375 902.421875 1309.796875 924.621094 C 1252.585938 862.855469 1182.609375 816.476562 1097.691406 784.28125 C 1099.113281 766.105469 1100.535156 747.890625 1101.953125 729.652344 Z M 1111.207031 609.808594 C 1112.613281 591.527344 1114.007812 573.28125 1115.402344 555.085938 C 1179.128906 570.699219 1232.9375 597.917969 1278.496094 637.382812 C 1280.953125 659.988281 1283.40625 682.542969 1285.851562 705.027344 C 1237.363281 660.757812 1179.726562 629.253906 1111.207031 609.808594 Z M 1115.683594 551.40625 C 1117.117188 532.671875 1118.542969 513.996094 1119.964844 495.402344 C 1174.226562 505.96875 1225.429688 526.972656 1270.546875 564.21875 C 1273.007812 586.898438 1275.464844 609.527344 1277.921875 632.101562 C 1232.40625 593.496094 1178.855469 566.796875 1115.683594 551.40625 Z M 1215.582031 53.6875 C 1218.019531 76.566406 1220.464844 99.457031 1222.910156 122.347656 C 1196.753906 129.246094 1171.40625 138.46875 1146.664062 148.65625 C 1148.03125 131.222656 1149.402344 113.828125 1150.777344 96.5 C 1173.015625 82.40625 1194.59375 68.152344 1215.582031 53.6875 Z M 1142.890625 150.214844 C 1122.949219 158.523438 1103.394531 167.417969 1084.125 176.183594 C 1074.832031 180.414062 1065.484375 184.703125 1056.160156 188.996094 L 1069.003906 145.847656 C 1095.910156 130.363281 1121.847656 114.742188 1146.933594 98.925781 C 1145.582031 115.96875 1144.234375 133.070312 1142.890625 150.214844 Z M 1051.761719 191.015625 C 1040.550781 196.183594 1029.394531 201.34375 1018.429688 206.421875 C 1001.332031 214.332031 983.953125 222.375 966.472656 230.378906 L 985.523438 191.835938 C 1012.757812 177.457031 1039.019531 163.023438 1064.425781 148.476562 Z M 936.617188 217.082031 C 951.363281 209.636719 965.828125 202.1875 980.039062 194.722656 L 961.226562 232.777344 C 943.917969 240.6875 926.527344 248.542969 909.21875 256.183594 C 900.253906 260.140625 891.394531 264.03125 882.605469 267.867188 L 906.007812 232.414062 C 916.304688 227.304688 926.515625 222.183594 936.617188 217.082031 Z M 798.839844 302.878906 C 778.097656 311.023438 757.515625 318.601562 736.871094 325.457031 L 764.257812 295.804688 C 784.535156 288.109375 804.578125 279.773438 824.351562 271.019531 Z M 713.40625 313.464844 C 727.921875 308.9375 742.339844 303.980469 756.640625 298.6875 L 729.785156 327.765625 C 713.984375 332.882812 698.132812 337.601562 682.117188 341.808594 C 680.402344 342.257812 678.675781 342.660156 676.957031 343.085938 L 704.992188 316.007812 C 707.8125 315.175781 710.621094 314.332031 713.40625 313.464844 Z M 697.542969 318.140625 L 669.980469 344.765625 C 655.574219 348.066406 641.070312 350.613281 626.671875 352.839844 L 654.421875 328.496094 C 669.71875 325.359375 683.929688 321.941406 697.542969 318.140625 Z M 619.984375 353.867188 C 613.207031 354.875 606.464844 355.832031 599.78125 356.777344 C 593.570312 357.65625 587.261719 358.554688 580.917969 359.496094 L 609.511719 336.453125 C 622.921875 334.398438 635.421875 332.234375 647.273438 329.925781 Z M 591.902344 339.019531 C 595.464844 338.523438 598.949219 338.023438 602.390625 337.515625 L 573.769531 360.578125 C 568.6875 361.359375 563.59375 362.160156 558.519531 363.027344 C 551.6875 364.199219 544.847656 365.507812 538.019531 366.914062 C 548.070312 359.152344 558.039062 351.289062 567.882812 343.296875 C 575.859375 341.59375 583.867188 340.132812 591.902344 339.019531 Z M 559.863281 345.09375 C 549.9375 353.0625 539.894531 360.914062 529.777344 368.660156 C 519.097656 370.976562 508.460938 373.496094 497.933594 376.070312 C 507.632812 369.207031 517.203125 362.109375 526.574219 354.714844 L 526.179688 354.21875 C 537.324219 350.855469 548.558594 347.746094 559.863281 345.09375 Z M 448.652344 379.363281 C 457.695312 376.542969 466.847656 373.53125 475.851562 370.539062 C 466.566406 376.921875 457.0625 382.859375 447.425781 388.460938 C 440.132812 390.175781 432.8125 391.832031 425.496094 393.378906 C 433.070312 389.117188 440.753906 384.46875 448.652344 379.363281 Z M 352.21875 423.695312 C 355.972656 422.675781 359.675781 421.59375 363.347656 420.453125 L 363.324219 420.648438 C 369.257812 421.445312 375.304688 422.144531 381.4375 422.761719 C 381.015625 422.96875 380.59375 423.175781 380.171875 423.382812 C 375.371094 425.726562 370.542969 428.085938 365.703125 430.472656 C 359.382812 428.832031 353.128906 427.066406 346.941406 425.160156 C 348.679688 424.667969 350.433594 424.175781 352.21875 423.695312 Z M 340.675781 426.992188 C 347.289062 429.121094 353.980469 431.097656 360.746094 432.921875 C 354.382812 436.078125 348.003906 439.289062 341.636719 442.585938 C 334.910156 439.683594 328.296875 436.585938 321.792969 433.273438 C 327.828125 431.0625 334.082031 428.976562 340.675781 426.992188 Z M 272.929688 456.757812 C 277.902344 453.75 282.851562 450.957031 287.84375 448.324219 C 294.191406 452.992188 300.710938 457.382812 307.417969 461.511719 C 302.679688 464.339844 297.976562 467.238281 293.328125 470.246094 L 278.535156 479.820312 C 271.972656 475.128906 265.632812 470.144531 259.488281 464.886719 Z M 208.863281 495.496094 L 224.558594 486.007812 C 230.566406 491.84375 236.792969 497.390625 243.25 502.644531 L 215.167969 520.8125 C 208.769531 515.226562 202.519531 509.300781 196.433594 503.015625 C 200.578125 500.507812 204.71875 498.003906 208.863281 495.496094 Z M 99 561.941406 C 104.261719 570 109.835938 577.730469 115.714844 585.152344 L 86.957031 603.753906 C 81.316406 595.773438 76.007812 587.480469 71.058594 578.839844 C 80.371094 573.203125 89.6875 567.574219 99 561.941406 Z M 175.300781 686.332031 L 205.824219 661.738281 C 218.636719 668.988281 232.199219 675.570312 246.53125 681.492188 L 216.171875 708.125 C 201.707031 701.539062 188.101562 694.269531 175.300781 686.332031 Z M 286.09375 733.054688 C 282.753906 732.144531 279.453125 731.203125 276.179688 730.242188 L 306.207031 701.234375 C 309.367188 702.054688 312.546875 702.855469 315.765625 703.625 C 334.324219 708.066406 353.367188 711.585938 372.679688 714.390625 L 344.53125 744.867188 L 345.957031 746.183594 C 325.597656 742.667969 305.5625 738.363281 286.09375 733.054688 Z M 605.414062 764.925781 C 592.011719 764.40625 578.613281 763.96875 564.429688 763.5 C 561.511719 763.40625 558.578125 763.308594 555.636719 763.210938 L 580.386719 725.71875 C 582.394531 725.730469 584.40625 725.746094 586.402344 725.761719 C 601.554688 725.867188 615.867188 725.972656 630.179688 726.171875 C 659.144531 726.578125 687.929688 727.089844 716.472656 727.9375 L 696.140625 769.066406 C 667.511719 767.472656 637.621094 766.167969 605.414062 764.925781 Z M 991.878906 809.191406 C 935.546875 794.65625 872.890625 784.09375 800.324219 776.90625 C 767.488281 773.652344 734.679688 771.253906 700.089844 769.289062 L 720.46875 728.0625 C 777.636719 729.828125 833.808594 733.019531 888.472656 739.558594 L 874.898438 785.160156 L 878.390625 786.195312 L 892.140625 740.007812 C 927.589844 744.347656 962.402344 750.109375 996.433594 757.84375 C 1030.910156 765.675781 1063.339844 775.292969 1093.847656 786.71875 C 1092.429688 804.8125 1091.007812 822.871094 1089.582031 840.855469 C 1058.910156 828.628906 1026.371094 818.09375 991.878906 809.191406 Z M 1093.117188 842.300781 C 1094.546875 824.28125 1095.972656 806.191406 1097.394531 788.0625 C 1182.988281 820.675781 1253.261719 867.792969 1310.460938 930.699219 C 1312.921875 953.234375 1315.371094 975.679688 1317.8125 998.011719 C 1257.675781 930.332031 1183.5625 878.90625 1093.117188 842.300781 Z M 1093.117188 842.300781 " fill-opacity="1" fill-rule="nonzero"/></g></g></g></svg>